<mxfile host="app.diagrams.net" modified="2023-07-06T11:17:09.875Z" agent="Mozilla/5.0 (X11; Ubuntu; Linux x86_64; rv:109.0) Gecko/20100101 Firefox/114.0" etag="l6gOqxVre7rraXDm_iSl" version="21.3.7" type="device">
  <diagram name="Page-1" id="tzQITGD-KAaS58YVqhrc">
    <mxGraphModel dx="2264" dy="1126" grid="1" gridSize="10" guides="1" tooltips="1" connect="1" arrows="1" fold="1" page="1" pageScale="1" pageWidth="827" pageHeight="1169" math="0" shadow="0">
      <root>
        <mxCell id="0" />
        <mxCell id="1" parent="0" />
        <mxCell id="eHgLXqpAeeJmSoNgKmg_-1" value="Système" style="rounded=0;whiteSpace=wrap;html=1;" parent="1" vertex="1">
          <mxGeometry x="-318" y="95" width="104" height="30" as="geometry" />
        </mxCell>
        <mxCell id="eHgLXqpAeeJmSoNgKmg_-2" value=": Administrateur" style="shape=umlActor;verticalLabelPosition=bottom;verticalAlign=top;html=1;outlineConnect=0;" parent="1" vertex="1">
          <mxGeometry x="-640" y="80" width="30" height="60" as="geometry" />
        </mxCell>
        <mxCell id="eHgLXqpAeeJmSoNgKmg_-7" value="" style="html=1;points=[];perimeter=orthogonalPerimeter;outlineConnect=0;targetShapes=umlLifeline;portConstraint=eastwest;newEdgeStyle={&quot;edgeStyle&quot;:&quot;elbowEdgeStyle&quot;,&quot;elbow&quot;:&quot;vertical&quot;,&quot;curved&quot;:0,&quot;rounded&quot;:0};" parent="1" vertex="1">
          <mxGeometry x="-630" y="190" width="10" height="470" as="geometry" />
        </mxCell>
        <mxCell id="eHgLXqpAeeJmSoNgKmg_-8" value="" style="html=1;points=[];perimeter=orthogonalPerimeter;outlineConnect=0;targetShapes=umlLifeline;portConstraint=eastwest;newEdgeStyle={&quot;edgeStyle&quot;:&quot;elbowEdgeStyle&quot;,&quot;elbow&quot;:&quot;vertical&quot;,&quot;curved&quot;:0,&quot;rounded&quot;:0};" parent="1" vertex="1">
          <mxGeometry x="-271" y="190" width="10" height="470" as="geometry" />
        </mxCell>
        <mxCell id="eHgLXqpAeeJmSoNgKmg_-21" value="" style="endArrow=classic;html=1;rounded=0;" parent="1" edge="1">
          <mxGeometry relative="1" as="geometry">
            <mxPoint x="-620" y="270" as="sourcePoint" />
            <mxPoint x="-271" y="270" as="targetPoint" />
            <Array as="points">
              <mxPoint x="-550" y="270" />
              <mxPoint x="-500" y="270" />
            </Array>
          </mxGeometry>
        </mxCell>
        <mxCell id="eHgLXqpAeeJmSoNgKmg_-22" value="1 : consultation du blog()" style="edgeLabel;resizable=0;html=1;align=center;verticalAlign=middle;" parent="eHgLXqpAeeJmSoNgKmg_-21" connectable="0" vertex="1">
          <mxGeometry relative="1" as="geometry">
            <mxPoint y="-10" as="offset" />
          </mxGeometry>
        </mxCell>
        <mxCell id="eHgLXqpAeeJmSoNgKmg_-27" value="" style="endArrow=classic;html=1;rounded=0;" parent="1" edge="1">
          <mxGeometry relative="1" as="geometry">
            <mxPoint x="-619.5" y="379.5" as="sourcePoint" />
            <mxPoint x="-270.5" y="379.5" as="targetPoint" />
            <Array as="points">
              <mxPoint x="-549.5" y="379.5" />
              <mxPoint x="-499.5" y="379.5" />
            </Array>
          </mxGeometry>
        </mxCell>
        <mxCell id="eHgLXqpAeeJmSoNgKmg_-28" value="1.4 : modification d&#39;un post()" style="edgeLabel;resizable=0;html=1;align=center;verticalAlign=middle;" parent="eHgLXqpAeeJmSoNgKmg_-27" connectable="0" vertex="1">
          <mxGeometry relative="1" as="geometry">
            <mxPoint y="-10" as="offset" />
          </mxGeometry>
        </mxCell>
        <mxCell id="eHgLXqpAeeJmSoNgKmg_-29" value="" style="endArrow=classic;html=1;rounded=0;" parent="1" edge="1">
          <mxGeometry relative="1" as="geometry">
            <mxPoint x="-620" y="300" as="sourcePoint" />
            <mxPoint x="-271" y="300" as="targetPoint" />
            <Array as="points">
              <mxPoint x="-550" y="300" />
              <mxPoint x="-500" y="300" />
            </Array>
          </mxGeometry>
        </mxCell>
        <mxCell id="eHgLXqpAeeJmSoNgKmg_-30" value="1.1 : ajout d&#39;un post()" style="edgeLabel;resizable=0;html=1;align=center;verticalAlign=middle;" parent="eHgLXqpAeeJmSoNgKmg_-29" connectable="0" vertex="1">
          <mxGeometry relative="1" as="geometry">
            <mxPoint y="-10" as="offset" />
          </mxGeometry>
        </mxCell>
        <mxCell id="eHgLXqpAeeJmSoNgKmg_-39" value="sd Administration du blog" style="text;html=1;align=center;verticalAlign=middle;resizable=0;points=[];autosize=1;strokeColor=none;fillColor=none;" parent="1" vertex="1">
          <mxGeometry x="-810" y="20" width="160" height="30" as="geometry" />
        </mxCell>
        <mxCell id="eHgLXqpAeeJmSoNgKmg_-40" value="" style="endArrow=none;dashed=1;html=1;dashPattern=1 3;strokeWidth=2;rounded=0;" parent="1" source="eHgLXqpAeeJmSoNgKmg_-8" edge="1">
          <mxGeometry width="50" height="50" relative="1" as="geometry">
            <mxPoint x="-311" y="175" as="sourcePoint" />
            <mxPoint x="-261" y="125" as="targetPoint" />
          </mxGeometry>
        </mxCell>
        <mxCell id="eHgLXqpAeeJmSoNgKmg_-42" value="" style="endArrow=none;dashed=1;html=1;dashPattern=1 3;strokeWidth=2;rounded=0;" parent="1" edge="1">
          <mxGeometry width="50" height="50" relative="1" as="geometry">
            <mxPoint x="-625.5" y="190" as="sourcePoint" />
            <mxPoint x="-625.5" y="160" as="targetPoint" />
          </mxGeometry>
        </mxCell>
        <mxCell id="rLgrCAnV_b43Tge-Wyza-1" value="ref" style="shape=umlFrame;whiteSpace=wrap;html=1;pointerEvents=0;" parent="1" vertex="1">
          <mxGeometry x="-619.5" y="190" width="348.5" height="50" as="geometry" />
        </mxCell>
        <mxCell id="rLgrCAnV_b43Tge-Wyza-3" value="Voir Connexion" style="text;html=1;align=center;verticalAlign=middle;resizable=0;points=[];autosize=1;strokeColor=none;fillColor=none;" parent="1" vertex="1">
          <mxGeometry x="-469.5" y="200" width="100" height="30" as="geometry" />
        </mxCell>
        <mxCell id="rLgrCAnV_b43Tge-Wyza-4" value="" style="endArrow=classic;html=1;rounded=0;" parent="1" edge="1">
          <mxGeometry relative="1" as="geometry">
            <mxPoint x="-501.5" y="420" as="sourcePoint" />
            <mxPoint x="-621.5" y="420" as="targetPoint" />
            <Array as="points">
              <mxPoint x="-424" y="420" />
              <mxPoint x="-269.5" y="420" />
            </Array>
          </mxGeometry>
        </mxCell>
        <mxCell id="rLgrCAnV_b43Tge-Wyza-5" value="1.6 : confirmation de modification()" style="edgeLabel;resizable=0;html=1;align=center;verticalAlign=middle;" parent="rLgrCAnV_b43Tge-Wyza-4" connectable="0" vertex="1">
          <mxGeometry relative="1" as="geometry">
            <mxPoint x="-119" y="-10" as="offset" />
          </mxGeometry>
        </mxCell>
        <mxCell id="rLgrCAnV_b43Tge-Wyza-8" value="" style="html=1;points=[];perimeter=orthogonalPerimeter;outlineConnect=0;targetShapes=umlLifeline;portConstraint=eastwest;newEdgeStyle={&quot;edgeStyle&quot;:&quot;elbowEdgeStyle&quot;,&quot;elbow&quot;:&quot;vertical&quot;,&quot;curved&quot;:0,&quot;rounded&quot;:0};" parent="1" vertex="1">
          <mxGeometry x="-261" y="400" width="10" height="20" as="geometry" />
        </mxCell>
        <mxCell id="H61nWzEEqI4VSqPFWY5y-1" value="" style="endArrow=classic;html=1;rounded=0;" edge="1" parent="1">
          <mxGeometry relative="1" as="geometry">
            <mxPoint x="-499.5" y="340" as="sourcePoint" />
            <mxPoint x="-619.5" y="340" as="targetPoint" />
            <Array as="points">
              <mxPoint x="-422" y="340" />
              <mxPoint x="-269.5" y="340" />
            </Array>
          </mxGeometry>
        </mxCell>
        <mxCell id="H61nWzEEqI4VSqPFWY5y-2" value="&lt;div&gt;1.3 : confirmation d&#39;ajout()&lt;/div&gt;" style="edgeLabel;resizable=0;html=1;align=center;verticalAlign=middle;" connectable="0" vertex="1" parent="H61nWzEEqI4VSqPFWY5y-1">
          <mxGeometry relative="1" as="geometry">
            <mxPoint x="-119" y="-10" as="offset" />
          </mxGeometry>
        </mxCell>
        <mxCell id="H61nWzEEqI4VSqPFWY5y-3" value="1.2 : vérifications des informations()" style="html=1;align=left;spacingLeft=2;endArrow=block;rounded=0;edgeStyle=orthogonalEdgeStyle;curved=0;rounded=0;" edge="1" parent="1">
          <mxGeometry relative="1" as="geometry">
            <mxPoint x="-261" y="300" as="sourcePoint" />
            <Array as="points">
              <mxPoint x="-227.5" y="330" />
            </Array>
            <mxPoint x="-252" y="330" as="targetPoint" />
          </mxGeometry>
        </mxCell>
        <mxCell id="H61nWzEEqI4VSqPFWY5y-4" value="" style="html=1;points=[];perimeter=orthogonalPerimeter;outlineConnect=0;targetShapes=umlLifeline;portConstraint=eastwest;newEdgeStyle={&quot;edgeStyle&quot;:&quot;elbowEdgeStyle&quot;,&quot;elbow&quot;:&quot;vertical&quot;,&quot;curved&quot;:0,&quot;rounded&quot;:0};" vertex="1" parent="1">
          <mxGeometry x="-261" y="320" width="10" height="20" as="geometry" />
        </mxCell>
        <mxCell id="H61nWzEEqI4VSqPFWY5y-5" value="" style="endArrow=classic;html=1;rounded=0;" edge="1" parent="1">
          <mxGeometry relative="1" as="geometry">
            <mxPoint x="-620" y="460" as="sourcePoint" />
            <mxPoint x="-271" y="460" as="targetPoint" />
            <Array as="points">
              <mxPoint x="-550" y="460" />
              <mxPoint x="-500" y="460" />
            </Array>
          </mxGeometry>
        </mxCell>
        <mxCell id="H61nWzEEqI4VSqPFWY5y-6" value="1.7 : suppression d&#39;un post()" style="edgeLabel;resizable=0;html=1;align=center;verticalAlign=middle;" connectable="0" vertex="1" parent="H61nWzEEqI4VSqPFWY5y-5">
          <mxGeometry relative="1" as="geometry">
            <mxPoint y="-10" as="offset" />
          </mxGeometry>
        </mxCell>
        <mxCell id="H61nWzEEqI4VSqPFWY5y-9" value="1.5 : vérifications des informations()" style="html=1;align=left;spacingLeft=2;endArrow=block;rounded=0;edgeStyle=orthogonalEdgeStyle;curved=0;rounded=0;" edge="1" parent="1">
          <mxGeometry relative="1" as="geometry">
            <mxPoint x="-261" y="380" as="sourcePoint" />
            <Array as="points">
              <mxPoint x="-227.5" y="410" />
            </Array>
            <mxPoint x="-252" y="410" as="targetPoint" />
          </mxGeometry>
        </mxCell>
        <mxCell id="H61nWzEEqI4VSqPFWY5y-31" value="" style="endArrow=classic;html=1;rounded=0;" edge="1" parent="1">
          <mxGeometry relative="1" as="geometry">
            <mxPoint x="-619.5" y="540" as="sourcePoint" />
            <mxPoint x="-270.5" y="540" as="targetPoint" />
            <Array as="points">
              <mxPoint x="-549.5" y="540" />
              <mxPoint x="-499.5" y="540" />
            </Array>
          </mxGeometry>
        </mxCell>
        <mxCell id="H61nWzEEqI4VSqPFWY5y-32" value="1.9 : suppression d&#39;un commentaire()" style="edgeLabel;resizable=0;html=1;align=center;verticalAlign=middle;" connectable="0" vertex="1" parent="H61nWzEEqI4VSqPFWY5y-31">
          <mxGeometry relative="1" as="geometry">
            <mxPoint y="-10" as="offset" />
          </mxGeometry>
        </mxCell>
        <mxCell id="H61nWzEEqI4VSqPFWY5y-33" value="" style="endArrow=classic;html=1;rounded=0;" edge="1" parent="1">
          <mxGeometry relative="1" as="geometry">
            <mxPoint x="-503" y="500" as="sourcePoint" />
            <mxPoint x="-623" y="500" as="targetPoint" />
            <Array as="points">
              <mxPoint x="-425.5" y="500" />
              <mxPoint x="-271" y="500" />
            </Array>
          </mxGeometry>
        </mxCell>
        <mxCell id="H61nWzEEqI4VSqPFWY5y-34" value="1.8 : confirmation de suppression du post()" style="edgeLabel;resizable=0;html=1;align=center;verticalAlign=middle;" connectable="0" vertex="1" parent="H61nWzEEqI4VSqPFWY5y-33">
          <mxGeometry relative="1" as="geometry">
            <mxPoint x="-119" y="-10" as="offset" />
          </mxGeometry>
        </mxCell>
        <mxCell id="H61nWzEEqI4VSqPFWY5y-35" value="" style="endArrow=classic;html=1;rounded=0;" edge="1" parent="1">
          <mxGeometry relative="1" as="geometry">
            <mxPoint x="-501.25" y="585" as="sourcePoint" />
            <mxPoint x="-621.25" y="585" as="targetPoint" />
            <Array as="points">
              <mxPoint x="-423.75" y="585" />
              <mxPoint x="-269.25" y="585" />
            </Array>
          </mxGeometry>
        </mxCell>
        <mxCell id="H61nWzEEqI4VSqPFWY5y-36" value="1.10 : confirmation de suppression du commentaire()" style="edgeLabel;resizable=0;html=1;align=center;verticalAlign=middle;" connectable="0" vertex="1" parent="H61nWzEEqI4VSqPFWY5y-35">
          <mxGeometry relative="1" as="geometry">
            <mxPoint x="-119" y="-10" as="offset" />
          </mxGeometry>
        </mxCell>
        <mxCell id="H61nWzEEqI4VSqPFWY5y-37" value="" style="endArrow=classic;html=1;rounded=0;" edge="1" parent="1">
          <mxGeometry relative="1" as="geometry">
            <mxPoint x="-620" y="620" as="sourcePoint" />
            <mxPoint x="-271" y="620" as="targetPoint" />
            <Array as="points">
              <mxPoint x="-550" y="620" />
              <mxPoint x="-500" y="620" />
            </Array>
          </mxGeometry>
        </mxCell>
        <mxCell id="H61nWzEEqI4VSqPFWY5y-38" value="1.11 : suppression d&#39;un utilisateur()" style="edgeLabel;resizable=0;html=1;align=center;verticalAlign=middle;" connectable="0" vertex="1" parent="H61nWzEEqI4VSqPFWY5y-37">
          <mxGeometry relative="1" as="geometry">
            <mxPoint y="-10" as="offset" />
          </mxGeometry>
        </mxCell>
        <mxCell id="H61nWzEEqI4VSqPFWY5y-39" value="" style="endArrow=classic;html=1;rounded=0;" edge="1" parent="1">
          <mxGeometry relative="1" as="geometry">
            <mxPoint x="-501.25" y="660" as="sourcePoint" />
            <mxPoint x="-621.25" y="660" as="targetPoint" />
            <Array as="points">
              <mxPoint x="-423.75" y="660" />
              <mxPoint x="-269.25" y="660" />
            </Array>
          </mxGeometry>
        </mxCell>
        <mxCell id="H61nWzEEqI4VSqPFWY5y-40" value="1.12 : confirmation de suppression de l&#39;utilisateur()" style="edgeLabel;resizable=0;html=1;align=center;verticalAlign=middle;" connectable="0" vertex="1" parent="H61nWzEEqI4VSqPFWY5y-39">
          <mxGeometry relative="1" as="geometry">
            <mxPoint x="-119" y="-10" as="offset" />
          </mxGeometry>
        </mxCell>
      </root>
    </mxGraphModel>
  </diagram>
</mxfile>
